<?xml version="1.0" encoding="UTF-8"?>
<svg version="1.1" xmlns="http://www.w3.org/2000/svg" width="264" height="216">
<path d="M0 0 C87.12 0 174.24 0 264 0 C264 71.28 264 142.56 264 216 C176.88 216 89.76 216 0 216 C0 144.72 0 73.44 0 0 Z " fill="#F8FAFB" transform="translate(0,0)"/>
<path d="M0 0 C1.03930664 0.02030273 1.03930664 0.02030273 2.09960938 0.04101562 C3.79591265 0.07611155 5.49181136 0.12991057 7.1875 0.1875 C7.33445312 1.27417969 7.33445312 1.27417969 7.484375 2.3828125 C8.53067339 9.1476728 9.58160858 14.50569903 15.3671875 18.80859375 C20.92825492 21.52750898 27.18506979 20.97679093 33.1875 20.1875 C38.16522427 17.98821093 42.17036667 14.28966079 44.1875 9.1875 C44.5175 6.2175 44.8475 3.2475 45.1875 0.1875 C66.6375 0.1875 88.0875 0.1875 110.1875 0.1875 C110.5175 3.4875 110.8475 6.7875 111.1875 10.1875 C113.41150108 13.97488378 113.41150108 13.97488378 116.1875 17.1875 C116.98414063 18.00927734 116.98414063 18.00927734 117.796875 18.84765625 C121.47106798 20.90688532 124.98198686 20.70081089 129.125 20.6875 C129.92357422 20.71585938 130.72214844 20.74421875 131.54492188 20.7734375 C135.94097798 20.78800604 137.61345667 20.67975968 141.06640625 17.71875 C141.76636719 16.8834375 142.46632812 16.048125 143.1875 15.1875 C144.1775 14.8575 145.1675 14.5275 146.1875 14.1875 C146.8475 9.5675 147.5075 4.9475 148.1875 0.1875 C152.8075 0.1875 157.4275 0.1875 162.1875 0.1875 C162.1875 0.8475 162.1875 1.5075 162.1875 2.1875 C163.21875 2.373125 164.25 2.55875 165.3125 2.75 C170.00767816 4.08331631 172.59266198 7.17875644 175.1875 11.1875 C177.16251886 15.25145503 177.42243167 18.52275513 177.3828125 23.01953125 C177.37314453 24.95795898 177.37314453 24.95795898 177.36328125 26.93554688 C177.34657327 28.2903673 177.32964342 29.64518501 177.3125 31 C177.30246003 32.37434251 177.29333596 33.74869203 177.28515625 35.12304688 C177.26161242 38.47804317 177.22872567 41.83268199 177.1875 45.1875 C175.24914034 45.12739582 173.31165509 45.03858283 171.375 44.9375 C170.29605469 44.89109375 169.21710938 44.8446875 168.10546875 44.796875 C167.14253906 44.59578125 166.17960938 44.3946875 165.1875 44.1875 C164.7698255 43.52554658 164.35215099 42.86359316 163.92181969 42.18158054 C162.29286986 39.88361082 162.29286986 39.88361082 159.22422218 39.68134212 C158.00196623 39.6785352 156.77971027 39.67572828 155.52041626 39.6728363 C154.83942757 39.66589078 154.15843888 39.65894525 153.45681417 39.65178925 C151.16960901 39.6334588 148.88343406 39.64379947 146.59619141 39.65405273 C144.95855429 39.64699717 143.3209237 39.63825368 141.68330383 39.62794495 C137.23070204 39.60539791 132.77845481 39.60840334 128.32581758 39.61726642 C124.61054796 39.62236897 120.8953454 39.61508955 117.18008268 39.60779434 C108.41524315 39.59077778 99.65057764 39.59437802 90.88574219 39.61108398 C81.84074374 39.62800098 72.79622803 39.61218065 63.75128233 39.5798611 C55.98896352 39.55317448 48.22679507 39.54588687 40.46443498 39.55437618 C35.8269056 39.5593089 31.18966663 39.55707156 26.55217361 39.53658867 C22.19027151 39.51824647 17.82906399 39.52417195 13.46719933 39.54878807 C11.86641856 39.55380099 10.26558502 39.55029364 8.66484642 39.53763962 C6.47861464 39.52172484 4.29467447 39.53664024 2.10855103 39.55931091 C0.88554102 39.55989722 -0.33746899 39.56048353 -1.5975399 39.56108761 C-5.76429675 40.37295091 -7.24945128 41.85833112 -9.8125 45.1875 C-10.53846061 47.34469098 -10.53846061 47.34469098 -10.43395996 49.58947754 C-10.44516876 50.43895462 -10.45637756 51.2884317 -10.46792603 52.16365051 C-10.44803116 53.54153999 -10.44803116 53.54153999 -10.42773438 54.94726562 C-10.43328339 55.92507492 -10.4388324 56.90288422 -10.44454956 57.9103241 C-10.45634874 61.1386331 -10.43206692 64.3655394 -10.40625 67.59375 C-10.40453892 69.83906999 -10.40460456 72.08439197 -10.40637207 74.32971191 C-10.40471866 79.03396737 -10.3860161 83.73774638 -10.35449219 88.44189453 C-10.31481497 94.4713057 -10.31044692 100.50009274 -10.31795502 106.52960968 C-10.32102484 111.16560583 -10.30890366 115.80146172 -10.29182434 120.43742371 C-10.28479398 122.66056946 -10.28166985 124.88373111 -10.28251648 127.10688782 C-10.2807184 130.21412881 -10.25933491 133.32062261 -10.23242188 136.42773438 C-10.23535248 137.34632736 -10.23828308 138.26492035 -10.24130249 139.21134949 C-10.17730661 144.00113133 -9.97657532 147.32330325 -6.8125 151.1875 C-4.43660267 152.37544866 -3.03683271 152.29977628 -0.3873291 152.27842712 C0.54335388 152.27376434 1.47403687 152.26910156 2.43292236 152.26429749 C3.45730408 152.2543425 4.48168579 152.24438751 5.53710938 152.23413086 C7.76932598 152.22135219 10.00154454 152.20891204 12.23376465 152.19676208 C13.4222551 152.18884581 14.61074554 152.18092953 15.83525085 152.17277336 C23.43761878 152.13075132 31.04013928 152.14250161 38.64260101 152.14266109 C45.3259938 152.13966553 52.00825074 152.11902089 58.69140625 152.06079102 C65.1521458 152.00554293 71.61131712 151.99917858 78.07221985 152.02548409 C80.53133141 152.02671706 82.99051965 152.01027516 85.4493866 151.97556877 C105.76383066 151.70407043 105.76383066 151.70407043 110.83911133 155.38601685 C113.31160895 157.85871109 115.20730008 160.32029518 117.1875 163.1875 C120.30893294 165.87704381 123.2375127 167.0204583 127.1875 168.1875 C127.1875 168.8475 127.1875 169.5075 127.1875 170.1875 C83.6275 170.1875 40.0675 170.1875 -4.8125 170.1875 C-4.8125 169.5275 -4.8125 168.8675 -4.8125 168.1875 C-5.6478125 168.0328125 -5.6478125 168.0328125 -6.5 167.875 C-13.43623894 165.81287491 -16.93237619 161.00768571 -20.8125 155.1875 C-21.75510688 151.6128023 -21.94348229 148.23941989 -21.95967102 144.55290222 C-21.97040398 142.86868919 -21.97040398 142.86868919 -21.98135376 141.15045166 C-21.98404266 139.92799744 -21.98673157 138.70554321 -21.98950195 137.44604492 C-21.99607315 136.15118668 -22.00264435 134.85632843 -22.00941467 133.52223206 C-22.03038408 129.23749007 -22.04080885 124.95274801 -22.05078125 120.66796875 C-22.05483116 119.18939 -22.05894815 117.71081143 -22.06313133 116.23223305 C-22.08216561 109.28573011 -22.09640157 102.3392377 -22.1047433 95.39271373 C-22.11451615 87.38797745 -22.14084409 79.38351765 -22.18124419 71.37887877 C-22.21144364 65.18167428 -22.2262157 58.9845489 -22.22952431 52.78727227 C-22.23186997 49.09031237 -22.24076715 45.39364844 -22.26598549 41.69676781 C-22.29368351 37.57004867 -22.28942344 33.44394497 -22.2824707 29.31713867 C-22.29528076 28.10075714 -22.30809082 26.88437561 -22.32128906 25.63113403 C-22.26945657 17.1867225 -21.02746212 11.89707168 -15.375 5.375 C-10.26507017 1.01286478 -6.71173575 -0.25048583 0 0 Z " fill="#0971C2" transform="translate(35.8125,27.8125)"/>
<path d="M0 0 C0.495 3.96 0.495 3.96 1 8 C4.58327753 9.00217064 4.58327753 9.00217064 8 8 C8.46523063 6.10466658 8.46523063 6.10466658 8.625 3.9375 C8.810625 1.9884375 8.810625 1.9884375 9 0 C18.47945106 0 25.85825156 4.61444471 34 9 C34 9.66 34 10.32 34 11 C34.556875 11.2475 35.11375 11.495 35.6875 11.75 C44.24046336 16.37322344 47.15576919 23.62339231 50.25 32.3984375 C51.10232631 35.35494439 51.33102543 37.93801473 51 41 C46.05 41.495 46.05 41.495 41 42 C41 43.98 41 45.96 41 48 C46.445 48.495 46.445 48.495 52 49 C51.25747572 61.87042084 45.01861302 72.32611535 35.9375 81.125 C28.18924214 87.74956447 19.18523903 91.65473766 9 92 C8.93941406 91.36191406 8.87882812 90.72382813 8.81640625 90.06640625 C8.73261719 89.24011719 8.64882812 88.41382813 8.5625 87.5625 C8.48128906 86.73878906 8.40007812 85.91507812 8.31640625 85.06640625 C8.21069185 83.01337975 8.21069185 83.01337975 7 82 C4.5 81.83333333 4.5 81.83333333 2 82 C0.41727399 83.58272601 0.65264253 85.38034003 0.4375 87.5625 C0.35371094 88.38878906 0.26992187 89.21507812 0.18359375 90.06640625 C0.12300781 90.70449219 0.06242187 91.34257812 0 92 C-12.40778298 91.16707012 -22.60418726 86.3657081 -31.23046875 77.234375 C-37.73174353 69.02525982 -42.35030465 60.72807999 -42 50 C-41.36191406 49.93941406 -40.72382813 49.87882812 -40.06640625 49.81640625 C-39.24011719 49.73261719 -38.41382813 49.64882812 -37.5625 49.5625 C-36.73878906 49.48128906 -35.91507813 49.40007812 -35.06640625 49.31640625 C-33.01337975 49.21069185 -33.01337975 49.21069185 -32 48 C-31.83333333 45.5 -31.83333333 45.5 -32 43 C-33.58272601 41.41727399 -35.38034003 41.65264253 -37.5625 41.4375 C-38.38878906 41.35371094 -39.21507812 41.26992187 -40.06640625 41.18359375 C-41.02353516 41.09271484 -41.02353516 41.09271484 -42 41 C-42.9320645 32.79783237 -39.50883885 25.59262033 -34.875 18.95703125 C-32.67415895 16.2022623 -30.40357935 13.57892944 -28 11 C-27.46117187 10.41863281 -26.92234375 9.83726563 -26.3671875 9.23828125 C-22.48550356 5.53689411 -19.09181291 5.50918129 -14 5 C-13.34 4.01 -12.68 3.02 -12 2 C-7.9136039 0.53506555 -4.33982267 -0.26301956 0 0 Z " fill="#FBFCFC" transform="translate(191,91)"/>
<path d="M0 0 C0 0.66 0 1.32 0 2 C0.72445312 2.24621094 1.44890625 2.49242188 2.1953125 2.74609375 C14.75827952 8.36268486 22.97565029 22.17347542 27.97265625 34.375 C32.8370887 48.85517101 31.09201865 65.63548608 24.45703125 79.140625 C15.47982039 95.49270702 2.22195732 105.57056581 -15.625 110.8125 C-32.76060376 114.67967906 -49.08216653 111.18807576 -64 102 C-77.0963567 92.09694943 -86.10583318 79.33264132 -89 63 C-90.67653667 44.12508381 -87.67947212 29.50885628 -75.96875 14.375 C-70.60261439 7.99785333 -64.42709567 2.84790195 -57 -1 C-55.68 -1 -54.36 -1 -53 -1 C-53 -1.66 -53 -2.32 -53 -3 C-35.50593954 -7.86589761 -16.58993471 -8.29496736 0 0 Z M-47.5 9.5625 C-49 11 -49 11 -52.125 11.1875 C-60.48293753 12.93997077 -65.96965781 20.57106916 -70.4921875 27.41796875 C-74.21657181 33.79573567 -76.64683636 39.56138185 -76 47 C-75.04287109 47.09087891 -75.04287109 47.09087891 -74.06640625 47.18359375 C-73.24011719 47.26738281 -72.41382813 47.35117188 -71.5625 47.4375 C-70.73878906 47.51871094 -69.91507813 47.59992188 -69.06640625 47.68359375 C-67 48 -67 48 -66 49 C-65.875 51.5 -65.875 51.5 -66 54 C-67.58272601 55.58272601 -69.38034003 55.34735747 -71.5625 55.5625 C-72.38878906 55.64628906 -73.21507812 55.73007813 -74.06640625 55.81640625 C-74.70449219 55.87699219 -75.34257812 55.93757813 -76 56 C-75.95209558 68.38329245 -70.81305671 76.86195533 -62.41796875 85.70703125 C-54.85639265 92.87770196 -46.94332484 97.64086251 -36.375 98.1875 C-35.59125 98.125625 -34.8075 98.06375 -34 98 C-33.93941406 97.36191406 -33.87882812 96.72382813 -33.81640625 96.06640625 C-33.73261719 95.24011719 -33.64882812 94.41382813 -33.5625 93.5625 C-33.48128906 92.73878906 -33.40007812 91.91507812 -33.31640625 91.06640625 C-33 89 -33 89 -32 88 C-29.5 87.875 -29.5 87.875 -27 88 C-25.41727399 89.58272601 -25.65264253 91.38034003 -25.4375 93.5625 C-25.35371094 94.38878906 -25.26992187 95.21507812 -25.18359375 96.06640625 C-25.12300781 96.70449219 -25.06242187 97.34257812 -25 98 C-14.06069665 98 -2.91831159 92.18504011 5.0625 84.875 C12.14886954 77.06913317 18 65.53836478 18 55 C12.555 54.505 12.555 54.505 7 54 C7 52.02 7 50.04 7 48 C11.95 47.505 11.95 47.505 17 47 C16.60321977 37.87405475 14.55476396 30.07497332 8.4375 23.0625 C7.633125 22.381875 6.82875 21.70125 6 21 C4.9171875 19.8553125 4.9171875 19.8553125 3.8125 18.6875 C2.16877727 16.77286049 2.16877727 16.77286049 0 17 C0 16.34 0 15.68 0 15 C-11.83114869 8.30722235 -11.83114869 8.30722235 -25 6 C-25.33 8.64 -25.66 11.28 -26 14 C-27.9914056 14.38133299 -29.99279077 14.71325582 -32 15 C-34.04698414 12.95301586 -33.70045693 8.69588759 -34 6 C-38.66781639 5.71710204 -44.11342496 6.03481767 -47.5 9.5625 Z " fill="#0A6ABE" transform="translate(225,85)"/>
<path d="M0 0 C3.76030044 1.39869119 5.04318889 3.34424528 7.08984375 6.77734375 C7.79180062 12.84778767 4.58002466 17.064488 1.08984375 21.77734375 C-0.82529343 23.68087404 -2.81534694 25.37609243 -4.91015625 27.078125 C-8.30186168 29.95974973 -11.03336726 33.39574824 -13.91015625 36.77734375 C-18.59691334 42.09067265 -23.34159591 47.2870487 -28.41015625 52.23828125 C-30.12348679 53.94211856 -30.12348679 53.94211856 -32.22265625 56.71484375 C-32.77953125 57.39546875 -33.33640625 58.07609375 -33.91015625 58.77734375 C-34.57015625 58.77734375 -35.23015625 58.77734375 -35.91015625 58.77734375 C-35.91015625 59.43734375 -35.91015625 60.09734375 -35.91015625 60.77734375 C-37.484375 62.328125 -37.484375 62.328125 -39.59765625 64.08984375 C-42.86413444 66.86490487 -45.9250452 69.70443532 -48.91015625 72.77734375 C-50.91015625 74.77734375 -50.91015625 74.77734375 -53.15234375 75.04296875 C-54.02117187 75.0378125 -54.89 75.03265625 -55.78515625 75.02734375 C-56.64882812 75.0325 -57.5125 75.03765625 -58.40234375 75.04296875 C-62.79053343 74.57817607 -65.10418093 72.87482026 -67.84765625 69.52734375 C-70.70187862 66.14296345 -73.6562504 62.88843649 -76.69018555 59.66650391 C-82.09403021 53.92745979 -87.24671044 48.14627831 -91.91015625 41.77734375 C-92.72613281 40.771875 -92.72613281 40.771875 -93.55859375 39.74609375 C-95.68776019 36.644649 -95.41549778 34.44106987 -94.91015625 30.77734375 C-92.55842566 26.46583767 -92.55842566 26.46583767 -89.91015625 24.77734375 C-85.72818368 23.70853772 -81.85151145 23.76548589 -77.9765625 25.78515625 C-75.8760954 27.36615299 -73.90858452 29.06868758 -71.91015625 30.77734375 C-69.52611476 32.6354521 -67.09828842 34.42859509 -64.66015625 36.21484375 C-64.05719727 36.67616699 -63.45423828 37.13749023 -62.83300781 37.61279297 C-59.6980571 40.10019883 -59.6980571 40.10019883 -55.90356445 40.55883789 C-53.71712115 39.70166643 -52.5212063 38.78425702 -50.84375 37.15234375 C-50.00082397 36.34700195 -50.00082397 36.34700195 -49.14086914 35.52539062 C-48.54910889 34.94853516 -47.95734863 34.37167969 -47.34765625 33.77734375 C-42.3382729 29.00736753 -37.24052119 24.4916357 -31.8359375 20.16796875 C-27.56496355 16.67820099 -23.42967559 13.03516724 -19.29907227 9.38085938 C-7.13994911 -1.28152933 -7.13994911 -1.28152933 0 0 Z " fill="#0169C2" transform="translate(133.91015625,85.22265625)"/>
<path d="M0 0 C1.40536766 -0.00472824 1.40536766 -0.00472824 2.83912659 -0.009552 C3.85764206 -0.00752777 4.87615753 -0.00550354 5.92553711 -0.00341797 C6.99162704 -0.00437469 8.05771698 -0.00533142 9.15611267 -0.00631714 C11.43008482 -0.00699925 13.70405891 -0.00514281 15.97802734 -0.00097656 C19.35966756 0.00425045 22.74116736 -0.000856 26.12280273 -0.00732422 C36.86924444 -0.01018416 47.57746734 0.14061133 58.31225586 0.64501953 C70.04482368 1.17651447 81.7539159 1.17764113 93.49584961 1.12158203 C94.42935808 1.11766827 95.36286655 1.1137545 96.32466316 1.10972214 C105.06565861 1.07287242 113.80656072 1.027273 122.54736328 0.95800781 C127.38190201 0.92032932 132.21632556 0.89734543 137.05098915 0.88370132 C138.87339887 0.87569138 140.69579359 0.86214602 142.5181179 0.84276962 C145.05014924 0.81622434 147.58161611 0.80839408 150.11376953 0.8046875 C150.85191895 0.79233063 151.59006836 0.77997375 152.35058594 0.76724243 C157.49132534 0.78703812 160.94476591 1.70019446 165.39038086 4.12939453 C166.82788086 7.31689453 166.82788086 7.31689453 167.39038086 10.12939453 C162.51538086 9.25439453 162.51538086 9.25439453 161.39038086 8.12939453 C159.2502942 8.02148028 157.10658968 7.98524868 154.96380615 7.97549438 C154.28452631 7.97111213 153.60524647 7.96672988 152.90538239 7.96221483 C150.61229326 7.94878109 148.31924258 7.94263774 146.02612305 7.93652344 C144.38878707 7.92862599 142.75145285 7.92035727 141.11412048 7.91174316 C135.72184929 7.88547911 130.32957016 7.87021004 124.93725586 7.85595703 C123.08343755 7.85059894 121.22961929 7.84522143 119.37580109 7.83982468 C111.66554819 7.8181885 103.95529742 7.79945111 96.24502182 7.78820229 C85.18347349 7.77196008 74.12227632 7.73878426 63.0608604 7.68180144 C55.29012566 7.64313161 47.51948496 7.62357304 39.74865651 7.61828172 C35.10433999 7.61462385 30.46039761 7.60255695 25.816185 7.57017899 C21.44617218 7.54015063 17.07676086 7.53376761 12.70666695 7.54556274 C11.10263645 7.54578393 9.49857847 7.53744171 7.89464378 7.51990891 C5.70399937 7.49726633 3.51554511 7.50548606 1.32489014 7.52139282 C0.09928249 7.51808268 -1.12632515 7.51477253 -2.38907242 7.51136208 C-6.56534684 8.31280151 -8.04407549 9.79331425 -10.60961914 13.12939453 C-11.34242357 15.30099914 -11.34242357 15.30099914 -11.24885559 17.5650177 C-11.26414307 18.42172058 -11.27943054 19.27842346 -11.29518127 20.16108704 C-11.28655563 21.08753525 -11.27792999 22.01398346 -11.26904297 22.96850586 C-11.27952667 23.95434662 -11.29001038 24.94018738 -11.30081177 25.9559021 C-11.32956789 29.20806326 -11.32326931 32.45916023 -11.31665039 35.71142578 C-11.32976502 37.96873815 -11.34506851 40.22603877 -11.36247253 42.48332214 C-11.40236246 48.41977108 -11.41251562 54.35591331 -11.41650391 60.29248047 C-11.42582772 66.35214567 -11.46323662 72.41163009 -11.49829102 78.47119141 C-11.56290773 90.35725064 -11.5961144 102.24317503 -11.60961914 114.12939453 C-11.93961914 114.12939453 -12.26961914 114.12939453 -12.60961914 114.12939453 C-12.93961914 110.49939453 -13.26961914 106.86939453 -13.60961914 103.12939453 C-13.93961914 105.10939453 -14.26961914 107.08939453 -14.60961914 109.12939453 C-15.26961914 108.79939453 -15.92961914 108.46939453 -16.60961914 108.12939453 C-16.67921917 96.01151944 -16.7324813 83.89369214 -16.76505566 71.77565765 C-16.78069201 66.14838078 -16.80189337 60.52124097 -16.8359375 54.89404297 C-16.86860309 49.46052203 -16.88648743 44.02713269 -16.89425087 38.59352112 C-16.89978143 36.52354359 -16.91058126 34.45357303 -16.92680931 32.38365173 C-16.9486791 29.47777912 -16.95158205 26.57244596 -16.95019531 23.66650391 C-16.96098114 22.81629669 -16.97176697 21.96608948 -16.98287964 21.09011841 C-16.95254161 15.19075997 -16.34032336 9.14427562 -12.19298077 4.56533051 C-8.23957729 1.13607816 -5.12487539 0.00496673 0 0 Z " fill="#0E6CBD" transform="translate(36.609619140625,59.87060546875)"/>
<path d="M0 0 C1.32 0.33 2.64 0.66 4 1 C4.44007818 7.18309841 1.58480889 11.15936634 -2 16 C-3.91513718 17.90353029 -5.90519069 19.59874868 -8 21.30078125 C-11.39170543 24.18240598 -14.12321101 27.61840449 -17 31 C-21.68675709 36.3133289 -26.43143966 41.50970495 -31.5 46.4609375 C-33.21333054 48.16477481 -33.21333054 48.16477481 -35.3125 50.9375 C-35.869375 51.618125 -36.42625 52.29875 -37 53 C-37.66 53 -38.32 53 -39 53 C-39 53.66 -39 54.32 -39 55 C-40.57421875 56.55078125 -40.57421875 56.55078125 -42.6875 58.3125 C-45.95397819 61.08756112 -49.01488895 63.92709157 -52 67 C-54 69 -54 69 -56.2421875 69.265625 C-57.11101562 69.26046875 -57.97984375 69.2553125 -58.875 69.25 C-59.73867187 69.25515625 -60.60234375 69.2603125 -61.4921875 69.265625 C-65.88037718 68.80083232 -68.19402468 67.09747651 -70.9375 63.75 C-73.79172237 60.3656197 -76.74609415 57.11109274 -79.7800293 53.88916016 C-85.18387396 48.15011604 -90.33655419 42.36893456 -95 36 C-95.5465625 35.33226562 -96.093125 34.66453125 -96.65625 33.9765625 C-98.71488592 30.94845269 -98.38176078 28.56310061 -98 25 C-96.51280402 22.02560804 -95.64084979 21.22429742 -92.5 20.125 C-90 20 -90 20 -87 22 C-86.34 22.66 -85.68 23.32 -85 24 C-85.78375 23.95875 -86.5675 23.9175 -87.375 23.875 C-90.16116119 23.71271266 -90.16116119 23.71271266 -92 26 C-91.88266675 32.10132895 -90.09630778 34.80378227 -86 39 C-85.34 39.33 -84.68 39.66 -84 40 C-84 40.66 -84 41.32 -84 42 C-83.34 42 -82.68 42 -82 42 C-80.58984375 43.43359375 -80.58984375 43.43359375 -78.9375 45.4375 C-74.15184177 51.06591566 -69.1736324 56.88424507 -63 61 C-58.52867457 61.33120929 -54.94081491 61.25189423 -51 59 C-50.33047394 57.6681002 -49.66416382 56.33458182 -49 55 C-47.52294922 53.2800293 -47.52294922 53.2800293 -45.8046875 51.57421875 C-45.17498047 50.94580078 -44.54527344 50.31738281 -43.89648438 49.66992188 C-43.22939453 49.01572266 -42.56230469 48.36152344 -41.875 47.6875 C-41.19501953 47.01396484 -40.51503906 46.34042969 -39.81445312 45.64648438 C-35.8864918 41.77866408 -31.89520779 38.03308134 -27.69140625 34.46484375 C-22.66544383 30.11210494 -18.2702067 25.22218037 -13.96875 20.16796875 C-11.66660481 17.6328684 -9.18448714 15.34271926 -6.6875 13 C-2.37716872 8.77469802 -0.66416611 5.97749503 0 0 Z " fill="#0B52A7" transform="translate(137,91)"/>
<path d="M0 0 C0.76376953 -0.01998047 1.52753906 -0.03996094 2.31445312 -0.06054688 C5.74449779 -0.05756163 8.01207031 0.14164404 11.0625 1.78125 C13.51338715 6.12136266 13.17899384 10.48061727 13.125 15.375 C13.14884766 16.36435547 13.17269531 17.35371094 13.19726562 18.37304688 C13.18799556 22.96790905 13.0565602 25.66832728 10.53515625 29.59375 C6.7889886 31.91726002 3.71648869 32.14419179 -0.5625 32 C-1.27792969 32.01095703 -1.99335938 32.02191406 -2.73046875 32.03320312 C-7.91078989 31.9605818 -7.91078989 31.9605818 -10.13867188 29.74804688 C-11.7191647 26.93643331 -11.8246706 25.1168962 -11.8359375 21.90234375 C-11.83980469 20.84595703 -11.84367188 19.78957031 -11.84765625 18.70117188 C-11.83605469 17.60353516 -11.82445312 16.50589844 -11.8125 15.375 C-11.82410156 14.27349609 -11.83570313 13.17199219 -11.84765625 12.03710938 C-11.84378906 10.98201172 -11.83992187 9.92691406 -11.8359375 8.83984375 C-11.83255371 7.87554443 -11.82916992 6.91124512 -11.82568359 5.91772461 C-11.4375 3.4375 -11.4375 3.4375 -10.15454102 1.62695312 C-7.12612141 -0.47093687 -3.55191138 -0.03280523 0 0 Z " fill="#08A2E7" transform="translate(164.4375,9.5625)"/>
<path d="M0 0 C0.76763672 0.01998047 1.53527344 0.03996094 2.32617188 0.06054688 C3.08994141 0.05345703 3.85371094 0.04636719 4.640625 0.0390625 C9.03241655 0.08875205 11.64279361 0.23083461 14.88867188 3.49804688 C15.40625 5.87060547 15.40625 5.87060547 15.41992188 8.64648438 C15.42507812 9.65195312 15.43023437 10.65742188 15.43554688 11.69335938 C15.42007813 12.74265625 15.40460938 13.79195312 15.38867188 14.87304688 C15.40414062 15.91460937 15.41960937 16.95617187 15.43554688 18.02929688 C15.41307957 22.42165404 15.27318191 25.67882967 13.39257812 29.68554688 C9.7482392 32.32357068 6.72189972 32.23433112 2.32617188 32.12304688 C1.55853516 32.14238281 0.79089844 32.16171875 0 32.18164062 C-3.42351531 32.15179306 -5.55174001 32.01400239 -8.11523438 29.65039062 C-9.61362607 24.90842162 -9.54428912 20.37833155 -9.48632812 15.43554688 C-9.49792969 14.44232422 -9.50953125 13.44910156 -9.52148438 12.42578125 C-9.51761719 11.46865234 -9.51375 10.51152344 -9.50976562 9.52539062 C-9.50638184 8.65648193 -9.50299805 7.78757324 -9.49951172 6.89233398 C-8.54633519 1.01321312 -5.64852952 0.00492461 0 0 Z " fill="#0878CF" transform="translate(59.111328125,9.501953125)"/>
<path d="M0 0 C4.26130498 0.52888537 6.49412367 1.86920925 9.75 4.625 C11.04357422 5.70007813 11.04357422 5.70007813 12.36328125 6.796875 C13.23339844 7.52390625 14.10351562 8.2509375 15 9 C16.63958984 10.29958273 18.28502639 11.59183941 19.9375 12.875 C21.00291016 13.70644531 21.00291016 13.70644531 22.08984375 14.5546875 C27.79754659 18.87339926 31.98348611 18.73560226 39 18 C43.39721793 17.06981928 47.73467091 15.92277533 52.05639648 14.69116211 C59.76836722 12.54890621 59.76836722 12.54890621 64 14 C64 14.99 64 15.98 64 17 C62.04414675 18.00484204 60.08523763 19.00373805 58.125 20 C57.03445312 20.556875 55.94390625 21.11375 54.8203125 21.6875 C52 23 52 23 50 23 C50 23.66 50 24.32 50 25 C49.01 25.391875 48.02 25.78375 47 26.1875 C41.61232077 28.48711918 36.8579537 31.7613642 32 35 C28.88753558 35.66211739 26.10906446 35.69741117 23 35 C20.57262649 33.06595823 19.22013033 30.66989181 17.6875 28 C16.7723117 26.53520178 15.85289429 25.073039 14.9296875 23.61328125 C14.45885742 22.8548291 13.98802734 22.09637695 13.50292969 21.31494141 C10.52014455 16.72059952 7.08720564 12.44901445 3.70776367 8.14257812 C0 3.31798848 0 3.31798848 0 0 Z " fill="#1284D3" transform="translate(167,111)"/>
<path d="M0 0 C2.77809903 0.91173134 4.29812739 2.33864452 6.0234375 4.6640625 C5.6934375 5.3240625 5.3634375 5.9840625 5.0234375 6.6640625 C4.5078125 6.4990625 3.9921875 6.3340625 3.4609375 6.1640625 C-2.25004479 4.98368556 -2.25004479 4.98368556 -7.67993164 6.64599609 C-9.44388292 8.05913354 -11.08716824 9.54568939 -12.7265625 11.1015625 C-13.95331509 12.21216702 -15.18119209 13.32153073 -16.41015625 14.4296875 C-17.0119873 14.98076172 -17.61381836 15.53183594 -18.23388672 16.09960938 C-20.67097611 18.28745875 -23.22377794 20.31665323 -25.7890625 22.3515625 C-30.09300641 25.84141731 -33.99234192 29.57569763 -37.859375 33.5390625 C-41.07490798 36.76646092 -44.51619225 39.70480262 -47.9765625 42.6640625 C-49.47799742 43.97492078 -50.97803174 45.28738526 -52.4765625 46.6015625 C-53.64322917 47.62239583 -54.80989583 48.64322917 -55.9765625 49.6640625 C-61.03783906 46.9510647 -65.24819018 43.96321845 -69.5390625 40.1640625 C-72.71165494 37.37522077 -75.80463317 34.71003232 -79.37890625 32.4453125 C-80.23613281 31.8575 -81.09335938 31.2696875 -81.9765625 30.6640625 C-81.9765625 30.0040625 -81.9765625 29.3440625 -81.9765625 28.6640625 C-82.9046875 28.5403125 -83.8328125 28.4165625 -84.7890625 28.2890625 C-87.9765625 27.6640625 -87.9765625 27.6640625 -90.9765625 25.6640625 C-89.36210311 24.04960311 -87.64468833 24.33894518 -85.4140625 24.2265625 C-79.20112819 24.32295499 -76.54294678 26.75980394 -71.9765625 30.6640625 C-69.59252101 32.52217085 -67.16469467 34.31531384 -64.7265625 36.1015625 C-64.12360352 36.56288574 -63.52064453 37.02420898 -62.89941406 37.49951172 C-59.76446335 39.98691758 -59.76446335 39.98691758 -55.9699707 40.44555664 C-53.7835274 39.58838518 -52.58761255 38.67097577 -50.91015625 37.0390625 C-50.06723022 36.2337207 -50.06723022 36.2337207 -49.20727539 35.41210938 C-48.61551514 34.83525391 -48.02375488 34.25839844 -47.4140625 33.6640625 C-42.40467915 28.89408628 -37.30692744 24.37835445 -31.90234375 20.0546875 C-27.6313698 16.56491974 -23.49608184 12.92188599 -19.36547852 9.26757812 C-7.34000579 -1.27761193 -7.34000579 -1.27761193 0 0 Z " fill="#1063B5" transform="translate(133.9765625,85.3359375)"/>
<path d="M0 0 C1.49739583 1.26953125 2.99479167 2.5390625 4.4921875 3.80859375 C7.12229886 5.88679055 8.86913837 6.13027247 12.15078735 6.15821838 C13.45489815 6.17290161 13.45489815 6.17290161 14.78535461 6.18788147 C15.74129013 6.19363693 16.69722565 6.1993924 17.68212891 6.20532227 C19.18949364 6.22017166 19.18949364 6.22017166 20.72731018 6.23532104 C24.06037004 6.26699582 27.39344417 6.2917171 30.7265625 6.31640625 C33.03299335 6.33697061 35.33942038 6.35796694 37.64584351 6.37937927 C43.72526975 6.43465339 49.80473031 6.4840391 55.88421631 6.53222656 C62.08430038 6.58240264 68.28433444 6.638109 74.484375 6.69335938 C86.65620731 6.80100625 98.82808298 6.90243669 111 7 C110.67 8.32 110.34 9.64 110 11 C96.65685493 11.06948378 83.31375284 11.12280316 69.97046375 11.15543652 C63.77475918 11.17109819 57.5791783 11.19234593 51.38354492 11.22631836 C45.4053952 11.25889345 39.42736454 11.27684923 33.44913292 11.28463173 C31.16734632 11.29017853 28.88556631 11.30100992 26.60383034 11.31719017 C23.40997821 11.33893946 20.21661924 11.34196792 17.02270508 11.34057617 C15.60498055 11.35675491 15.60498055 11.35675491 14.15861511 11.3732605 C7.99379736 11.34415603 4.47936685 10.47936685 0 6 C-0.125 2.875 -0.125 2.875 0 0 Z " fill="#0350A8" transform="translate(25,175)"/>
<path d="M0 0 C0.66 0.99 1.32 1.98 2 3 C2.66 2.67 3.32 2.34 4 2 C4 35.66 4 69.32 4 104 C3.67 104 3.34 104 3 104 C2.67 100.37 2.34 96.74 2 93 C1.67 94.98 1.34 96.96 1 99 C0.34 98.67 -0.32 98.34 -1 98 C-1.02315501 85.81300891 -1.04093125 73.62602303 -1.05181217 61.43901443 C-1.05703406 55.7802986 -1.06411918 50.1215978 -1.07543945 44.46289062 C-1.0862929 39.00346478 -1.09228207 33.54405341 -1.09487724 28.08461761 C-1.09672705 26.00018842 -1.10033916 23.91576002 -1.10573006 21.83133698 C-1.11297303 18.91520974 -1.11398955 15.99914257 -1.11352539 13.08300781 C-1.11712067 12.21841949 -1.12071594 11.35383118 -1.12442017 10.46304321 C-1.1230455 9.66661407 -1.12167084 8.87018494 -1.12025452 8.04962158 C-1.12117631 7.36012043 -1.1220981 6.67061928 -1.12304783 5.96022415 C-0.99196686 3.87202738 -0.56672808 2.01025076 0 0 Z " fill="#013082" transform="translate(21,70)"/>
<path d="M0 0 C0.33 0 0.66 0 1 0 C1.15855469 0.88300781 1.31710938 1.76601562 1.48046875 2.67578125 C4.08492188 16.07216723 9.47757521 26.71636282 17 38 C-19.96 38 -56.92 38 -95 38 C-95 37.67 -95 37.34 -95 37 C-61.67 37 -28.34 37 6 37 C4.35 33.37 2.7 29.74 1 26 C-0.82151192 20.21820391 -1.28674669 15.05386626 -1.1875 9.0625 C-1.1865332 7.91297852 -1.1865332 7.91297852 -1.18554688 6.74023438 C-1.14091099 1.14091099 -1.14091099 1.14091099 0 0 Z " fill="#B8C7D6" transform="translate(126,143)"/>
<path d="M0 0 C3.59232199 1.33048963 5.3641782 3.51257914 7.69921875 6.4765625 C9.54513716 8.63844893 11.76303432 10.2601378 14 12 C14.33 12.66 14.66 13.32 15 14 C15.99 14.33 16.98 14.66 18 15 C19.92494143 18.0915726 21.61813663 20.9635137 22.875 24.375 C23.98457396 26.36351136 23.98457396 26.36351136 27.125 26.75 C28.07375 26.8325 29.0225 26.915 30 27 C30.66 25.02 31.32 23.04 32 21 C32.99 21.33 33.98 21.66 35 22 C35.556875 21.525625 36.11375 21.05125 36.6875 20.5625 C40.14216964 18.22826375 42.88468646 18.79423432 47 19 C43.90617802 22.63187798 40.38191497 24.57965057 36.21875 26.75390625 C33.95928322 27.90064706 33.95928322 27.90064706 32.28125 29.65234375 C28.62360044 31.81311275 25.10942976 32.02303029 21 31 C18.53885973 28.99331669 17.13468828 26.54380998 15.5625 23.8125 C14.64426974 22.34536881 13.72232183 20.88055854 12.796875 19.41796875 C12.33861328 18.67853027 11.88035156 17.9390918 11.40820312 17.17724609 C8.8661279 13.24690164 5.92603771 9.6324193 2.99633789 5.98754883 C0 2.20067213 0 2.20067213 0 0 Z " fill="#0B55AD" transform="translate(169,115)"/>
<path d="M0 0 C0.66 0.99 1.32 1.98 2 3 C2.66 2.67 3.32 2.34 4 2 C4 35.66 4 69.32 4 104 C3.67 104 3.34 104 3 104 C2.67 71.66 2.34 39.32 2 6 C1.67 26.79 1.34 47.58 1 69 C-1.32594968 65.51107548 -1.24834187 64.15096407 -1.24291992 60.03149414 C-1.24599655 58.80334488 -1.24907318 57.57519562 -1.25224304 56.30982971 C-1.24534407 54.96827 -1.23807701 53.62671213 -1.23046875 52.28515625 C-1.22927628 50.90897159 -1.22882393 49.53278611 -1.2290802 48.15660095 C-1.22751625 45.27239892 -1.2192346 42.38832116 -1.20581055 39.50415039 C-1.18883682 35.81089201 -1.18499586 32.11777039 -1.18575573 28.42447758 C-1.18548348 25.58229777 -1.17999313 22.74014772 -1.17275429 19.89797783 C-1.16957641 18.53644473 -1.16760227 17.17490826 -1.16686058 15.81337166 C-1.16468679 13.90820221 -1.15513497 12.00304551 -1.14526367 10.09790039 C-1.14145187 9.01440811 -1.13764008 7.93091583 -1.13371277 6.81459045 C-1.01761433 4.3707734 -0.70678727 2.33073059 0 0 Z " fill="#1E4B97" transform="translate(21,70)"/>
<path d="M0 0 C9.47945106 0 16.85825156 4.61444471 25 9 C25 9.66 25 10.32 25 11 C25.8353125 11.37125 25.8353125 11.37125 26.6875 11.75 C35.24046336 16.37322344 38.15576919 23.62339231 41.25 32.3984375 C42.10232631 35.35494439 42.33102543 37.93801473 42 41 C39.03 41 36.06 41 33 41 C33 40.67 33 40.34 33 40 C34.98 40 36.96 40 39 40 C36.01039642 28.29071931 30.53034483 16.74738482 20 10 C13.86106823 6.49326384 8.15262894 3.3251195 1 3 C0.67 4.32 0.34 5.64 0 7 C0 4.69 0 2.38 0 0 Z " fill="#D8E4EB" transform="translate(200,91)"/>
<path d="M0 0 C3.52071975 3.21911963 5.86742803 6.26493606 8.18212891 10.4206543 C11.28881578 16.20301613 11.28881578 16.20301613 16.3359375 20.0859375 C22.11628812 20.34240357 25.68140824 17.52538103 30 14 C30.66 14 31.32 14 32 14 C30.60497573 18.88258495 28.20415961 21.22366818 24 24 C18.80694666 24.74186476 15.28890655 24.01135992 11 21 C6.75438386 15.86627028 0 6.841146 0 0 Z " fill="#DBE1E8" transform="translate(176,126)"/>
<path d="M0 0 C0.33 0.99 0.66 1.98 1 3 C-4.38684914 11.94567005 -14.6840274 17.91404711 -24 22 C-24.99 22 -25.98 22 -27 22 C-27 20.35 -27 18.7 -27 17 C-25.97261719 16.52691406 -24.94523438 16.05382812 -23.88671875 15.56640625 C-14.86930569 11.30188499 -7.40525181 6.7776881 0 0 Z " fill="#0B48A0" transform="translate(242,171)"/>
<path d="M0 0 C2 1 2 1 2.9296875 3.51171875 C3.24164063 4.55972656 3.55359375 5.60773438 3.875 6.6875 C5.38579139 11.38650558 6.90951709 15.09144808 10 19 C10.41894531 19.57234375 10.83789062 20.1446875 11.26953125 20.734375 C15.09755257 25.66967521 19.43116002 28.29658132 25 31 C26.33333333 31.66666667 27.66666667 32.33333333 29 33 C29 33.99 29 34.98 29 36 C20.58549131 34.73044255 13.1729039 28.57746721 8 22 C6.4791316 19.6845666 5.02605672 17.38477739 3.625 15 C3.10570923 14.12794922 3.10570923 14.12794922 2.57592773 13.23828125 C0.30601965 9.18873338 -0.68791016 5.62355315 -1 1 C-0.67 0.67 -0.34 0.34 0 0 Z " fill="#D6DEE6" transform="translate(150,144)"/>
<path d="M0 0 C-4.7410335 10.19100659 -14.9075092 15.14403021 -25 19 C-28.18794682 19.76215695 -30.71167773 20 -34 20 C-34 17.36 -34 14.72 -34 12 C-33.67 12 -33.34 12 -33 12 C-33 13.65 -33 15.3 -33 17 C-26.72949187 16.13909007 -21.96615737 14.83318093 -16.7890625 11.12109375 C-15 10 -15 10 -13 9.59765625 C-10.21921337 8.766679 -9.18411874 7.23151211 -7.375 5 C-3.28571429 0 -3.28571429 0 0 0 Z " fill="#D9DFE6" transform="translate(234,163)"/>
<path d="M0 0 C4.09862225 3.68876002 5.83669355 6.67700964 6.22705078 12.22973633 C6.21134033 14.01287231 6.21134033 14.01287231 6.1953125 15.83203125 C6.18886719 17.12431641 6.18242187 18.41660156 6.17578125 19.74804688 C6.15907327 21.1028673 6.14214342 22.45768501 6.125 23.8125 C6.11496003 25.18684251 6.10583596 26.56119203 6.09765625 27.93554688 C6.07411242 31.29054317 6.04122567 34.64518199 6 38 C2.04 37.67 -1.92 37.34 -6 37 C-6 36.67 -6 36.34 -6 36 C-2.7 36 0.6 36 4 36 C3.91890198 31.45761452 3.80607248 26.91654961 3.6875 22.375 C3.66494141 21.08980469 3.64238281 19.80460937 3.61914062 18.48046875 C3.58369141 17.23652344 3.54824219 15.99257813 3.51171875 14.7109375 C3.48553467 13.56931152 3.45935059 12.42768555 3.43237305 11.25146484 C2.95169786 7.63676575 1.72760828 5.18399384 0 2 C0 1.34 0 0.68 0 0 Z " fill="#50BDED" transform="translate(207,35)"/>
<path d="M0 0 C4.14427102 -0.04976954 8.28837953 -0.08589288 12.43286133 -0.10986328 C13.84011876 -0.11986557 15.2473557 -0.13347178 16.65454102 -0.15087891 C18.68771448 -0.17538366 20.72061106 -0.18654083 22.75390625 -0.1953125 C23.97408447 -0.20578613 25.1942627 -0.21625977 26.45141602 -0.22705078 C30.30506028 0.01951882 33.34213 0.81421825 37 2 C37 2.33 37 2.66 37 3 C24.79 3 12.58 3 0 3 C0 2.01 0 1.02 0 0 Z " fill="#EAEAEA" transform="translate(105,201)"/>
<path d="M0 0 C3.3 0 6.6 0 10 0 C9.56615696 7.51994609 7.47542107 16.12482392 2.3359375 21.85546875 C1.89507812 22.23316406 1.45421875 22.61085937 1 23 C1.75 16.375 1.75 16.375 4 13 C4.44429438 10.95130926 4.81294195 8.88545707 5.125 6.8125 C5.37636719 5.18248047 5.37636719 5.18248047 5.6328125 3.51953125 C5.75398437 2.68808594 5.87515625 1.85664063 6 1 C4.02 1 2.04 1 0 1 C0 0.67 0 0.34 0 0 Z " fill="#E0E4E8" transform="translate(233,140)"/>
<path d="M0 0 C0 2 0 2 -2 4.125 C-5.40890896 6.2555681 -7.05962125 6.332246 -10.9375 6.04296875 C-13.03946315 5.9182281 -13.03946315 5.9182281 -15.19921875 6.484375 C-19.08279031 7.19934215 -22.87367276 7.105421 -26.8125 7.0625 C-27.99489258 7.05573242 -27.99489258 7.05573242 -29.20117188 7.04882812 C-31.13414761 7.03711312 -33.06708393 7.01917998 -35 7 C-35 6.67 -35 6.34 -35 6 C-34.01902344 5.97421875 -33.03804687 5.9484375 -32.02734375 5.921875 C-21.26129267 5.51347975 -10.06579931 0 0 0 Z " fill="#C4CCDC" transform="translate(222,191)"/>
<path d="M0 0 C1 2 1 2 0.375 4.4375 C-1 7 -1 7 -3.296875 8.34765625 C-6.35585276 10.21752271 -8.28270798 12.29549788 -10.625 15 C-15.43938656 20.52093476 -15.43938656 20.52093476 -18 23 C-18.66 22.67 -19.32 22.34 -20 22 C-19.21496094 21.154375 -18.42992188 20.30875 -17.62109375 19.4375 C-12.41154065 13.81585906 -7.2166763 8.19254968 -2.20703125 2.390625 C-1.49611889 1.57158034 -0.76688674 0.76688674 0 0 Z " fill="#CDDEEC" transform="translate(133,107)"/>
<path d="M0 0 C3.78962312 3.78962312 4.91206179 9.32917408 5.1875 14.5625 C5.125625 15.366875 5.06375 16.17125 5 17 C2.03 17 -0.94 17 -4 17 C-4 16.67 -4 16.34 -4 16 C-2.02 16 -0.04 16 2 16 C1.690625 14.96875 1.38125 13.9375 1.0625 12.875 C-1.39783917 4.19351751 -1.39783917 4.19351751 0 0 Z " fill="#CBDDE8" transform="translate(237,115)"/>
<path d="M0 0 C2 1 2 1 2.9296875 3.4765625 C3.24164063 4.51554688 3.55359375 5.55453125 3.875 6.625 C5.43813564 11.54946492 7.23293867 15.65176077 10 20 C8.19921875 19.8203125 8.19921875 19.8203125 6 19 C2.04084515 13.64076931 -0.85417157 7.70810788 -1 1 C-0.67 0.67 -0.34 0.34 0 0 Z " fill="#DDE3EA" transform="translate(150,144)"/>
<path d="M0 0 C0.66 0.33 1.32 0.66 2 1 C-0.23798345 5.30028902 -2.89651508 7.82431189 -6.6875 10.8125 C-8.17830078 11.99779297 -8.17830078 11.99779297 -9.69921875 13.20703125 C-10.83810547 14.09455078 -10.83810547 14.09455078 -12 15 C-12 10.91678393 -10.42111745 9.89782894 -7.6875 6.9375 C-6.88699219 6.05964844 -6.08648437 5.18179688 -5.26171875 4.27734375 C-3 2 -3 2 0 0 Z " fill="#D5E0EA" transform="translate(169,97)"/>
<path d="M0 0 C0.66 0.33 1.32 0.66 2 1 C1.48041715 5.37934119 0.94324258 9.68803391 0 14 C1.98 14 3.96 14 6 14 C6 14.33 6 14.66 6 15 C3.03 15 0.06 15 -3 15 C-3.36263859 9.1977825 -2.25684543 5.36000789 0 0 Z " fill="#D6E0EA" transform="translate(152,117)"/>
<path d="M0 0 C-1.33909529 4.38249366 -3.08994944 6.57949251 -7 9 C-9 8.8125 -9 8.8125 -11 8 C-12.66519519 7.65939189 -14.33157466 7.32441604 -16 7 C-16 6.67 -16 6.34 -16 6 C-15.11248047 5.85304687 -15.11248047 5.85304687 -14.20703125 5.703125 C-9.26595812 4.76810953 -4.1473678 0 0 0 Z " fill="#CDD6E3" transform="translate(208,140)"/>
<path d="M0 0 C0.33 0.99 0.66 1.98 1 3 C2.98 2.34 4.96 1.68 7 1 C6.34 2.98 5.68 4.96 5 7 C2.125 7.125 2.125 7.125 -1 7 C-1.66 6.34 -2.32 5.68 -3 5 C-2 2 -2 2 0 0 Z " fill="#0075C5" transform="translate(194,135)"/>
<path d="M0 0 C0 2.97 0 5.94 0 9 C-0.33 9 -0.66 9 -1 9 C-1 6.36 -1 3.72 -1 1 C-2.96102954 1.22788722 -4.91890505 1.48305057 -6.875 1.75 C-7.96554688 1.88921875 -9.05609375 2.0284375 -10.1796875 2.171875 C-13.12778129 2.70935435 -13.12778129 2.70935435 -14.3828125 5.078125 C-14.68832031 6.02945313 -14.68832031 6.02945313 -15 7 C-16.98 7 -18.96 7 -21 7 C-18.14138654 2.7120798 -14.37271478 1.65249656 -9.5 0.3125 C-6.3188625 -0.08514219 -3.20202408 -0.06278479 0 0 Z " fill="#69B4E1" transform="translate(192,90)"/>
<path d="M0 0 C0 2.31 0 4.62 0 7 C-0.33 5.68 -0.66 4.36 -1 3 C-5.29 3.99 -9.58 4.98 -14 6 C-12 2 -12 2 -8.6875 0.75 C-5.6304486 0.12822683 -3.09340906 -0.18747934 0 0 Z " fill="#E8ECEE" transform="translate(191,91)"/>
<path d="M0 0 C0.99 0.33 1.98 0.66 3 1 C1.43122326 2.5358444 -0.15556154 4.05331331 -1.75 5.5625 C-2.63171875 6.40941406 -3.5134375 7.25632812 -4.421875 8.12890625 C-7 10 -7 10 -9.21875 9.875 C-11.25337545 8.87553487 -12.5187037 7.70349074 -14 6 C-12.989375 6.12375 -11.97875 6.2475 -10.9375 6.375 C-6.18334902 5.92222372 -4.7935844 4.52796897 -1.578125 1.21484375 C-1.05734375 0.81394531 -0.5365625 0.41304688 0 0 Z " fill="#DAE1EA" transform="translate(86,117)"/>
<path d="M0 0 C0.66386719 0.20496094 1.32773438 0.40992188 2.01171875 0.62109375 C2.89472656 0.89050781 3.77773437 1.15992188 4.6875 1.4375 C5.55761719 1.70433594 6.42773438 1.97117188 7.32421875 2.24609375 C9.87025921 2.96344529 12.4003423 3.517541 15 4 C15 4.66 15 5.32 15 6 C12.87465341 5.85930804 10.74972471 5.71229079 8.625 5.5625 C7.44164062 5.48128906 6.25828125 5.40007812 5.0390625 5.31640625 C2 5 2 5 0 4 C0 2.68 0 1.36 0 0 Z " fill="#D7DBE4" transform="translate(171,192)"/>
<path d="M0 0 C0.33 0 0.66 0 1 0 C1.02685095 2.47923801 1.04676547 4.9581884 1.0625 7.4375 C1.07087891 8.14455078 1.07925781 8.85160156 1.08789062 9.58007812 C1.09653588 11.38693559 1.05220011 13.19387603 1 15 C0.67 15.33 0.34 15.66 0 16 C-0.23363881 17.84891946 -0.41303635 19.70488031 -0.5625 21.5625 C-0.64628906 22.57441406 -0.73007813 23.58632812 -0.81640625 24.62890625 C-0.87699219 25.41136719 -0.93757813 26.19382813 -1 27 C-1.33 27 -1.66 27 -2 27 C-2.27675737 17.74400342 -1.53140195 9.12004552 0 0 Z " fill="#E5E6E9" transform="translate(126,128)"/>
<path d="M0 0 C-3.01887244 3.48331435 -5.56909529 4.79157144 -10 6 C-10 5.34 -10 4.68 -10 4 C-10.66 3.67 -11.32 3.34 -12 3 C-8.2391768 -0.7608232 -5.0273023 -0.25136512 0 0 Z " fill="#0965BE" transform="translate(216,134)"/>
<path d="M0 0 C1 2 1 2 0.375 4.4375 C-1.29368348 7.54731922 -2.81017219 8.56457749 -6 10 C-6.66 9.67 -7.32 9.34 -8 9 C-6.85459775 7.68712379 -5.70866567 6.37470979 -4.5625 5.0625 C-3.92441406 4.33160156 -3.28632813 3.60070312 -2.62890625 2.84765625 C-1.77458541 1.87860647 -0.91348825 0.91348825 0 0 Z " fill="#B8D1E1" transform="translate(133,107)"/>
<path d="M0 0 C3.3 0 6.6 0 10 0 C9.25 7.625 9.25 7.625 7 11 C7 8.03 7 5.06 7 2 C4.69 1.67 2.38 1.34 0 1 C0 0.67 0 0.34 0 0 Z " fill="#A9C6DF" transform="translate(233,140)"/>
<path d="M0 0 C0 3 0 3 -1.4609375 4.82421875 C-2.09257812 5.43910156 -2.72421875 6.05398437 -3.375 6.6875 C-4.00148437 7.31011719 -4.62796875 7.93273437 -5.2734375 8.57421875 C-7 10 -7 10 -9 10 C-7.61811547 6.78956118 -6.07578097 4.95063635 -3.375 2.75 C-2.74335938 2.22921875 -2.11171875 1.7084375 -1.4609375 1.171875 C-0.73777344 0.59179688 -0.73777344 0.59179688 0 0 Z " fill="#3889D3" transform="translate(158,91)"/>
<path d="M0 0 C-1.49097658 3.7952131 -3.75700849 5.61042731 -7 8 C-7.33 6.35 -7.66 4.7 -8 3 C-2.25 0 -2.25 0 0 0 Z " fill="#DFE3E6" transform="translate(148,88)"/>
<path d="M0 0 C1.18851563 0.19464844 2.37703125 0.38929688 3.6015625 0.58984375 C4.97441406 0.82380859 4.97441406 0.82380859 6.375 1.0625 C6.375 1.3925 6.375 1.7225 6.375 2.0625 C1.755 2.0625 -2.865 2.0625 -7.625 2.0625 C-7.955 1.4025 -8.285 0.7425 -8.625 0.0625 C-5.61666904 -1.44166548 -3.27538422 -0.54589737 0 0 Z " fill="#EBEAEA" transform="translate(177.625,202.9375)"/>
<path d="M0 0 C0.66 0.33 1.32 0.66 2 1 C1.75 3.8125 1.75 3.8125 1 7 C-0.32 7.99 -1.64 8.98 -3 10 C-2.01 6.7 -1.02 3.4 0 0 Z " fill="#C6D6E4" transform="translate(152,117)"/>
<path d="M0 0 C0.66 0.33 1.32 0.66 2 1 C1.4375 2.875 1.4375 2.875 0 5 C-3.625 6.25 -3.625 6.25 -7 7 C-4.78071806 4.09197539 -3.07030857 2.04687238 0 0 Z " fill="#AACCE5" transform="translate(169,97)"/>
<path d="M0 0 C-1.375 1.5 -1.375 1.5 -3 3 C-3.66 3 -4.32 3 -5 3 C-5 3.66 -5 4.32 -5 5 C-7.475 4.01 -7.475 4.01 -10 3 C-6.1865669 0.45771127 -4.5252563 -0.11908569 0 0 Z " fill="#1576CA" transform="translate(222,131)"/>
<path d="M0 0 C2.96404505 2.80804268 5.44499019 5.18315774 7 9 C5.1875 8.875 5.1875 8.875 3 8 C0 2.96428571 0 2.96428571 0 0 Z " fill="#CCD7E5" transform="translate(176,126)"/>
<path d="M0 0 C3.36720387 1.39332574 4.9859524 2.9789286 7 6 C6.01 6.33 5.02 6.66 4 7 C0 2.25 0 2.25 0 0 Z " fill="#1365BA" transform="translate(169,115)"/>
<path d="M0 0 C3 1 3 1 4.6875 4.0625 C5.120625 5.031875 5.55375 6.00125 6 7 C4.125 6.6875 4.125 6.6875 2 6 C0 3 0 3 0 0 Z " fill="#E6E9EC" transform="translate(154,157)"/>
<path d="M0 0 C2.875 -0.1875 2.875 -0.1875 6 0 C6.66 0.99 7.32 1.98 8 3 C5.69 3 3.38 3 1 3 C0.67 2.01 0.34 1.02 0 0 Z " fill="#E7E8EA" transform="translate(192,147)"/>
</svg>
